<svg width="40" height="40" viewBox="0 0 40 40" fill="none" xmlns="http://www.w3.org/2000/svg">
<circle cx="20" cy="20" r="20" fill="#2E3555"/>
<path d="M29.5 21.1748V28.0098H26.358V22.0096C26.358 21.2569 26.3566 20.2719 26.0417 19.4767C25.8785 19.0647 25.6227 18.6783 25.2214 18.3984C24.8191 18.1177 24.3132 17.9738 23.7022 17.9738C23.0983 17.9738 22.5859 18.0919 22.1621 18.3266C21.7354 18.5628 21.4284 18.9007 21.2129 19.2915C20.7948 20.0497 20.7161 21.0183 20.7161 21.898V28.0098H17.5741V15.6568H20.5509V16.9783V17.4783H21.0509H21.1089H21.4104L21.5511 17.2116C22.0223 16.3186 23.2089 15.322 25.0321 15.322C27.007 15.322 28.0639 15.9614 28.6666 16.9187C29.3027 17.9292 29.5 19.3909 29.5 21.1748ZM13.7458 9.56667L14.0217 9.29073L13.7458 9.56667C14.1024 9.92325 14.3027 10.4069 14.3027 10.9112C14.3027 11.967 13.4446 12.8353 12.4013 12.8353C11.3577 12.8353 10.5 11.9671 10.5 10.9112C10.5 10.4069 10.7003 9.92325 11.0569 9.56667C11.4135 9.21009 11.8971 9.00977 12.4013 9.00977C12.9056 9.00977 13.3892 9.21009 13.7458 9.56667ZM13.9768 28.0098H10.8304V15.6568H13.9768V28.0098Z" stroke="white"/>
</svg>
