<svg width="60" height="60" viewBox="0 0 60 60" fill="none" xmlns="http://www.w3.org/2000/svg">
<g filter="url(#filter0_i_113_215)">
<path d="M17.0096 7.5C25.0481 2.85898 34.9519 2.85898 42.9904 7.5C51.0289 12.141 55.9808 20.718 55.9808 30C55.9808 39.282 51.0289 47.859 42.9904 52.5C34.9519 57.141 25.0481 57.141 17.0096 52.5C8.97114 47.859 4.01924 39.282 4.01924 30C4.01924 20.718 8.97114 12.141 17.0096 7.5Z" fill="#ED5264"/>
</g>
<g filter="url(#filter1_d_113_215)">
<path d="M41.534 21.4432C38.8674 19.3694 34.6508 19.018 34.4726 19.0031C34.1909 18.9797 33.9236 19.1341 33.8081 19.3832C33.8037 19.3917 33.5683 20.0528 33.3406 20.6905C36.4395 21.2154 38.5451 22.3801 38.6573 22.444C39.1831 22.7399 39.3591 23.3925 39.0522 23.9003C38.8487 24.2389 38.4802 24.4284 38.1017 24.4284C37.9136 24.4284 37.7244 24.3826 37.5506 24.2847C37.5198 24.2666 34.4308 22.5653 30.4034 22.5653C26.3749 22.5653 23.2847 24.2676 23.2539 24.2847C22.7292 24.5796 22.0559 24.406 21.7512 23.8972C21.4465 23.3904 21.6236 22.7399 22.1472 22.444C22.2594 22.3801 24.3727 21.2111 27.4804 20.6874C27.2406 20.0422 26.9986 19.3917 26.9942 19.3832C26.8787 19.133 26.6114 18.9755 26.3298 19.0031C26.1515 19.017 21.9349 19.3683 19.2331 21.4709C17.8206 22.7335 15 30.1155 15 36.4979C15 36.6107 15.0297 36.7204 15.088 36.8183C17.0363 40.1293 22.3475 40.9959 23.5575 41.0331C23.5652 41.0342 23.5718 41.0342 23.5784 41.0342C23.7919 41.0342 23.9932 40.9352 24.1197 40.768L25.4288 39.0519C22.5576 38.3822 21.0395 37.3293 20.9481 37.2644C20.4597 36.9163 20.3541 36.2498 20.7138 35.7761C21.0725 35.3044 21.7589 35.2001 22.2473 35.5461C22.288 35.5717 25.09 37.4699 30.4012 37.4699C35.7333 37.4699 38.5275 35.5642 38.555 35.5451C39.0434 35.2022 39.7321 35.3055 40.0896 35.7803C40.446 36.253 40.3426 36.9152 39.8564 37.2623C39.7651 37.3272 38.2547 38.378 35.39 39.0476L36.6826 40.767C36.8091 40.9352 37.0105 41.0331 37.2239 41.0331C37.2316 41.0331 37.2382 41.0331 37.2448 41.0321C38.456 40.9948 43.7672 40.1282 45.7143 36.8173C45.7726 36.7193 45.8023 36.6097 45.8023 36.4968C45.8023 30.1155 42.9817 22.7335 41.534 21.4432ZM26.0008 34.276C24.7852 34.276 23.8007 33.0847 23.8007 31.6145C23.8007 30.1443 24.7852 28.953 26.0008 28.953C27.2164 28.953 28.201 30.1443 28.201 31.6145C28.201 33.0847 27.2164 34.276 26.0008 34.276ZM34.8015 34.276C33.5859 34.276 32.6013 33.0847 32.6013 31.6145C32.6013 30.1443 33.5859 28.953 34.8015 28.953C36.0171 28.953 37.0017 30.1443 37.0017 31.6145C37.0017 33.0847 36.0171 34.276 34.8015 34.276Z" fill="white"/>
</g>
<defs>
<filter id="filter0_i_113_215" x="4.01923" y="4.01904" width="51.9615" height="55.9619" filterUnits="userSpaceOnUse" color-interpolation-filters="sRGB">
<feFlood flood-opacity="0" result="BackgroundImageFix"/>
<feBlend mode="normal" in="SourceGraphic" in2="BackgroundImageFix" result="shape"/>
<feColorMatrix in="SourceAlpha" type="matrix" values="0 0 0 0 0 0 0 0 0 0 0 0 0 0 0 0 0 0 127 0" result="hardAlpha"/>
<feOffset dy="4"/>
<feGaussianBlur stdDeviation="2"/>
<feComposite in2="hardAlpha" operator="arithmetic" k2="-1" k3="1"/>
<feColorMatrix type="matrix" values="0 0 0 0 0 0 0 0 0 0 0 0 0 0 0 0 0 0 0.25 0"/>
<feBlend mode="normal" in2="shape" result="effect1_innerShadow_113_215"/>
</filter>
<filter id="filter1_d_113_215" x="11" y="19" width="38.8023" height="30.0342" filterUnits="userSpaceOnUse" color-interpolation-filters="sRGB">
<feFlood flood-opacity="0" result="BackgroundImageFix"/>
<feColorMatrix in="SourceAlpha" type="matrix" values="0 0 0 0 0 0 0 0 0 0 0 0 0 0 0 0 0 0 127 0" result="hardAlpha"/>
<feOffset dy="4"/>
<feGaussianBlur stdDeviation="2"/>
<feComposite in2="hardAlpha" operator="out"/>
<feColorMatrix type="matrix" values="0 0 0 0 0 0 0 0 0 0 0 0 0 0 0 0 0 0 0.25 0"/>
<feBlend mode="normal" in2="BackgroundImageFix" result="effect1_dropShadow_113_215"/>
<feBlend mode="normal" in="SourceGraphic" in2="effect1_dropShadow_113_215" result="shape"/>
</filter>
</defs>
</svg>
