<svg width="35" height="35" viewBox="0 0 35 35" fill="none" xmlns="http://www.w3.org/2000/svg">
<circle cx="17.5" cy="17.5" r="17.5" fill="white"/>
<path d="M25.75 18.5279V24.446H23.1258V19.2584C23.1258 18.6025 23.1254 17.728 22.8446 17.0191C22.6985 16.6502 22.4681 16.3009 22.1045 16.0473C21.7399 15.7929 21.284 15.6646 20.7395 15.6646C20.2029 15.6646 19.7436 15.7696 19.3616 15.9811C18.9767 16.1942 18.7001 16.499 18.5065 16.8499C18.1325 17.5282 18.0641 18.3898 18.0641 19.1608V24.446H15.4398V13.7622H17.9195V14.856V15.356H18.4195H18.4703H18.7718L18.9125 15.0893C19.3145 14.3274 20.3321 13.4692 21.9031 13.4692C23.6157 13.4692 24.5173 14.0223 25.0304 14.8372C25.5768 15.7052 25.75 16.9684 25.75 18.5279ZM12.1672 24.446H9.53906V13.7622H12.1672V24.446ZM10.8512 11.1684C9.97328 11.1684 9.25 10.4375 9.25 9.54726C9.25 9.12259 9.4187 8.71531 9.71898 8.41503C10.0193 8.11474 10.4265 7.94604 10.8512 7.94604C11.2758 7.94604 11.6831 8.11474 11.9834 8.41503C12.2836 8.71531 12.4523 9.12259 12.4523 9.54726C12.4523 10.4374 11.7287 11.1684 10.8512 11.1684Z" stroke="#FF6E7C"/>
</svg>
