<svg width="35" height="35" viewBox="0 0 35 35" fill="none" xmlns="http://www.w3.org/2000/svg">
<circle cx="17.5" cy="17.5" r="17.5" fill="white"/>
<path d="M27.125 9.6338C26.2871 10.2248 25.3593 10.6769 24.3775 10.9725C23.8505 10.3666 23.1502 9.93715 22.3712 9.74223C21.5921 9.54731 20.7721 9.59634 20.0218 9.8827C19.2716 10.169 18.6274 10.6789 18.1764 11.3433C17.7253 12.0077 17.4892 12.7946 17.5 13.5975V14.4725C15.9623 14.5124 14.4386 14.1714 13.0646 13.4798C11.6907 12.7882 10.509 11.7676 9.625 10.5088C9.625 10.5088 6.125 18.3838 14 21.8838C12.198 23.107 10.0513 23.7204 7.875 23.6338C15.75 28.0088 25.375 23.6338 25.375 13.5713C25.3742 13.3276 25.3508 13.0844 25.305 12.845C26.198 11.9644 26.8282 10.8524 27.125 9.6338V9.6338Z" stroke="#FF6E7C" stroke-width="1.5" stroke-linecap="round" stroke-linejoin="round"/>
</svg>
