<svg width="36" height="35" viewBox="0 0 36 35" fill="none" xmlns="http://www.w3.org/2000/svg">
<circle cx="18" cy="17.5" r="17.5" fill="white"/>
<path d="M27.223 12.6175C27.1191 12.2022 26.9074 11.8218 26.6093 11.5145C26.3113 11.2072 25.9374 10.984 25.5255 10.8675C24.0205 10.5 18.0005 10.5 18.0005 10.5C18.0005 10.5 11.9805 10.5 10.4755 10.9025C10.0636 11.019 9.68973 11.2422 9.39168 11.5495C9.09363 11.8568 8.88194 12.2372 8.778 12.6525C8.50256 14.1799 8.36783 15.7293 8.3755 17.2812C8.36568 18.8449 8.50042 20.4061 8.778 21.945C8.89259 22.3474 9.10902 22.7134 9.40638 23.0077C9.70373 23.302 10.072 23.5146 10.4755 23.625C11.9805 24.0275 18.0005 24.0275 18.0005 24.0275C18.0005 24.0275 24.0205 24.0275 25.5255 23.625C25.9374 23.5085 26.3113 23.2853 26.6093 22.978C26.9074 22.6707 27.1191 22.2903 27.223 21.875C27.4963 20.3591 27.631 18.8215 27.6255 17.2812C27.6353 15.7176 27.5006 14.1564 27.223 12.6175V12.6175Z" stroke="#FF6E7C" stroke-width="1.5" stroke-linecap="round" stroke-linejoin="round"/>
<path d="M16.0317 20.1425L21.063 17.2813L16.0317 14.42V20.1425Z" stroke="#FF6E7C" stroke-width="1.5" stroke-linecap="round" stroke-linejoin="round"/>
</svg>
